<?xml version="1.0" standalone="no"?>
<!DOCTYPE svg PUBLIC "-//W3C//DTD SVG 20010904//EN"
 "http://www.w3.org/TR/2001/REC-SVG-20010904/DTD/svg10.dtd">
<svg version="1.0" xmlns="http://www.w3.org/2000/svg"
 width="300.000000pt" height="300.000000pt" viewBox="0 0 300.000000 300.000000"
 preserveAspectRatio="xMidYMid meet">

<g transform="translate(0.000000,300.000000) scale(0.100000,-0.100000)"
fill="#000000" stroke="none">
<path d="M2145 2447 c-65 -89 -118 -166 -118 -172 0 -5 85 -269 188 -585 103
-316 188 -580 189 -586 1 -12 -269 -214 -285 -214 -4 0 -53 141 -109 313 -56
171 -132 406 -170 520 l-68 208 -29 -38 c-16 -21 -71 -96 -123 -167 l-93 -128
204 -629 c112 -346 206 -629 209 -629 9 0 845 610 854 623 5 8 -36 147 -112
382 -67 204 -186 569 -265 813 -79 243 -146 444 -149 447 -2 3 -58 -68 -123
-158z"/>
</g>
</svg>
